<?xml version="1.0" encoding="UTF-8" standalone="no"?>
<svg
   xmlns:dc="http://purl.org/dc/elements/1.1/"
   xmlns:cc="http://creativecommons.org/ns#"
   xmlns:rdf="http://www.w3.org/1999/02/22-rdf-syntax-ns#"
   xmlns:svg="http://www.w3.org/2000/svg"
   xmlns="http://www.w3.org/2000/svg"
   xmlns:sodipodi="http://sodipodi.sourceforge.net/DTD/sodipodi-0.dtd"
   xmlns:inkscape="http://www.inkscape.org/namespaces/inkscape"
   width="350.49573mm"
   height="76.306831mm"
   viewBox="0 0 350.49572 76.30683"
   version="1.1"
   id="svg8"
   inkscape:version="1.0.1 (3bc2e813f5, 2020-09-07)"
   sodipodi:docname="gitlab-docker-windows-visualstudio.svg"
   inkscape:export-filename="C:\Users\keath\Workspace\KMX\keathmilligan.github.io\assets\images\gitlab-docker-windows-visualstudio.png"
   inkscape:export-xdpi="96"
   inkscape:export-ydpi="96">
  <defs
     id="defs2" />
  <sodipodi:namedview
     id="base"
     pagecolor="#000000"
     bordercolor="#666666"
     borderopacity="1.0"
     inkscape:pageopacity="0"
     inkscape:pageshadow="2"
     inkscape:zoom="1.4142136"
     inkscape:cx="685.49264"
     inkscape:cy="153.04276"
     inkscape:document-units="mm"
     inkscape:current-layer="layer1"
     inkscape:document-rotation="0"
     showgrid="true"
     showguides="true"
     inkscape:guide-bbox="true"
     lock-margins="false"
     fit-margin-top="0"
     fit-margin-left="0"
     fit-margin-right="0"
     fit-margin-bottom="0">
    <sodipodi:guide
       position="65.83258,108.2548"
       orientation="0,755.90551"
       id="guide833" />
    <sodipodi:guide
       position="265.83258,108.2548"
       orientation="755.90551,0"
       id="guide835" />
    <sodipodi:guide
       position="180.83258,-96.745195"
       orientation="0,-755.90551"
       id="guide837" />
    <sodipodi:guide
       position="65.83258,-91.745197"
       orientation="-755.90551,0"
       id="guide839" />
    <inkscape:grid
       type="xygrid"
       id="grid841"
       originx="65.832581"
       originy="-31.947969"
       units="mm"
       spacingx="0.99999999"
       spacingy="0.99999999" />
    <sodipodi:guide
       position="165.83258,143.2548"
       orientation="1,0"
       id="guide843" />
    <sodipodi:guide
       position="145.83258,8.254802"
       orientation="0,-1"
       id="guide845" />
  </sodipodi:namedview>
  <metadata
     id="metadata5">
    <rdf:RDF>
      <cc:Work
         rdf:about="">
        <dc:format>image/svg+xml</dc:format>
        <dc:type
           rdf:resource="http://purl.org/dc/dcmitype/StillImage" />
        <dc:title></dc:title>
      </cc:Work>
    </rdf:RDF>
  </metadata>
  <g
     inkscape:label="Layer 1"
     inkscape:groupmode="layer"
     id="layer1"
     transform="translate(65.832582,-31.94797)">
    <path
       id="path1170"
       style="display:inline;fill:#5d83ab;fill-opacity:1;stroke:none;stroke-width:0.820562;stroke-miterlimit:4;stroke-dasharray:none;stroke-opacity:0.498039"
       inkscape:label="background circle"
       d="m 155.55085,33.902138 a 37.986731,36.19912 0 0 0 -37.79424,36.199304 37.986731,36.19912 0 0 0 37.98635,36.199308 37.986731,36.19912 0 0 0 37.98635,-36.199308 37.986731,36.19912 0 0 0 -37.98635,-36.199304 37.986731,36.19912 0 0 0 -0.19211,0 z m -2.64572,8.548863 h 8.74636 a 1.4577094,1.4903274 0 0 1 1.45755,1.489748 v 16.393633 h 7.2888 a 1.4577094,1.4903274 0 0 1 1.45755,1.490817 v 7.331739 h 1.31158 a 1.3119385,1.3412947 0 0 0 0.99172,-0.446495 1.5160178,1.5499405 0 0 0 0.3789,-1.222493 11.836601,12.101458 0 0 1 2.09829,-9.776722 1.4577094,1.4903274 0 0 1 1.86648,-0.208218 12.361376,12.637976 0 0 1 4.78156,6.736053 7.8716308,8.0477681 0 0 1 1.28259,0 14.926944,15.260952 0 0 1 7.02586,2.295792 1.4577094,1.4903274 0 0 1 0.46689,1.996344 14.956099,15.290759 0 0 1 -10.34987,6.4688 41.661337,42.593558 0 0 1 -36.09305,21.10222 c -7.02615,0 -23.32395,-2.473703 -23.32395,-25.335327 a 1.4577094,1.4903274 0 0 1 1.45863,-1.489745 h 1.45753 v -7.451948 a 1.4577094,1.4903274 0 0 1 1.45755,-1.490817 h 7.2888 v -7.450871 a 1.4577094,1.4903274 0 0 1 1.45755,-1.490816 h 16.03515 v -7.451946 a 1.4577094,1.4903274 0 0 1 1.45753,-1.489748 z m 1.45755,2.980563 v 5.961131 h 5.8302 v -5.961131 z m -17.49269,8.941693 v 5.961125 h 5.83125 v -5.961125 z m 8.74635,0 v 5.961125 h 5.83126 v -5.961125 z m 8.74634,0 v 5.961125 h 5.8302 v -5.961125 z m -26.23905,8.941687 v 5.962203 h 5.83127 v -5.962203 z m 8.74636,0 v 5.962203 h 5.83125 v -5.962203 z m 8.74635,0 v 5.962203 h 5.83126 v -5.962203 z m 8.74634,0 v 5.962203 h 5.8302 v -5.962203 z m 8.74636,0 v 5.962203 h 5.83018 V 63.314944 Z M 136.8131,78.218835 a 2.9154709,2.9807079 0 0 0 0.0569,5.961132 2.915419,2.9806548 0 0 0 2.91509,-2.980566 2.915419,2.9806548 0 0 0 -2.97197,-2.980566 z" />
    <path
       d="M -24.862658,107.84738 -64.561279,78.975652 c -0.492152,-0.328106 -0.984265,-0.984262 -1.148303,-1.640443 -0.164,-0.656172 -0.164,-1.312345 0,-1.968525 l 4.593226,-13.943728 z m -24.114449,-74.475924 9.022411,28.0515 h -21.16166 l 9.022412,-28.0515 c 0.164057,-0.656173 0.82022,-0.984262 1.476392,-0.984262 0.984266,-0.164057 1.476397,0.328108 1.640445,0.984262 z m 9.022411,28.0515 H -9.7706231 L -24.862658,107.84738 Z m 56.103002,14.107775 c 0.164058,0.656173 0.164058,1.312347 0,1.968527 C 15.984269,78.155432 15.492126,78.647565 15,79.139695 L -24.862658,107.84738 11.391034,61.422956 Z M 11.391034,61.422956 H -9.6065771 l 9.02240896,-28.0515 c 0.164057,-0.656173 0.820221,-0.984262 1.476398,-0.984262 0.82022204,0 1.31235304,0.328108 1.47639304,0.984262 z"
       id="path6"
       style="fill:#5d83ab;fill-opacity:1;stroke-width:0.264583" />
    <path
       id="rect879"
       style="fill:#5d83ab;fill-opacity:1;stroke:none;stroke-width:2.64583;stroke-linecap:round;stroke-linejoin:round;paint-order:markers stroke fill"
       d="m 265.46171,31.94797 c 0.61928,0.636577 1.04771,1.487025 1.04771,2.501441 v 71.303949 c 0,1.01442 -0.42843,1.86487 -1.04771,2.50144 0.21431,-0.063 0.43547,-0.0948 0.64167,-0.19386 l 16.20215,-7.79197 c 1.44299,-0.693878 2.35761,-2.149098 2.35761,-3.750108 v -52.836 c 0,-1.60106 -0.91462,-3.05519 -2.35761,-3.7491 l -16.20215,-7.790958 c -0.2062,-0.0991 -0.42734,-0.132031 -0.64167,-0.194834 z m -2.64222,0.365211 c -0.29616,0.0032 -0.59334,0.07385 -0.87733,0.218314 -0.19209,0.135388 -0.39886,0.244817 -0.56924,0.415194 l -0.001,-10e-4 -0.01,0.01598 -30.363,27.682993 11.22073,8.51017 22.78117,-17.28248 v -17.42227 c 2e-5,-0.97869 -0.56444,-1.65379 -1.31287,-1.96379 -0.2774,-0.114928 -0.57199,-0.176276 -0.86815,-0.172248 z m -48.60544,18.220011 c -0.57109,0.0256 -1.13185,0.24763 -1.5833,0.65803 l -4.33465,3.93781 c -1.10881,1.00795 -1.10829,2.72105 -0.001,3.73072 l 53.06455,48.384058 0.0112,0.0112 10e-4,0.001 c 0.002,10e-4 0.003,0.002 0.006,0.003 0.16917,0.16707 0.37134,0.27624 0.56106,0.41011 0.56817,0.28925 1.19252,0.2748 1.74752,0.0449 C 264.43546,107.404 265,106.72994 265,105.75123 V 88.328902 l -49.1492,-37.2841 c -0.48554,-0.36837 -1.06574,-0.53814 -1.63683,-0.51279 z m -6.86771,8.36329 v 22.47611 c 2.48923,-2.5792 5.1645,-4.97029 7.83483,-7.36553 v -7.8134 c -1.63737,-1.50886 -3.27612,-3.01476 -4.94778,-4.48562 -0.85598,-0.92703 -2.12059,-1.74401 -2.88705,-2.81156 z m 12.15724,12.22659 -11.20748,10.21997 c -1.1073,1.00966 -1.10865,2.72274 0,3.7307 l 4.33366,3.93883 c 0.90286,0.82091 2.25055,0.88117 3.22267,0.14386 l 12.78973,-9.70275 z" />
    <path
       id="path4"
       style="fill:#5d83ab;fill-opacity:1;stroke-width:0.264583"
       d="M 28.815122,33.435331 V 68.355552 H 63.735357 V 33.435331 Z m 38.411869,0 V 68.355552 H 102.14723 V 33.435331 Z M 28.815122,71.847192 V 106.76744 H 63.735357 V 71.847192 Z m 38.411869,0 V 106.76744 H 102.14723 V 71.847192 Z" />
  </g>
</svg>
