<?xml version="1.0" encoding="UTF-8" standalone="no"?>
<svg
   xmlns:dc="http://purl.org/dc/elements/1.1/"
   xmlns:cc="http://creativecommons.org/ns#"
   xmlns:rdf="http://www.w3.org/1999/02/22-rdf-syntax-ns#"
   xmlns:svg="http://www.w3.org/2000/svg"
   xmlns="http://www.w3.org/2000/svg"
   xmlns:sodipodi="http://sodipodi.sourceforge.net/DTD/sodipodi-0.dtd"
   xmlns:inkscape="http://www.inkscape.org/namespaces/inkscape"
   width="149.17381"
   height="149.18167"
   viewBox="0 0 39.468904 39.470985"
   version="1.1"
   id="svg8"
   inkscape:version="1.0.1 (3bc2e813f5, 2020-09-07)"
   sodipodi:docname="globe.svg"
   inkscape:export-filename="C:\Users\keath\Workspace\KMX\elite-streamdeck-icons\ship-lights.png"
   inkscape:export-xdpi="96"
   inkscape:export-ydpi="96">
  <defs
     id="defs2" />
  <sodipodi:namedview
     id="base"
     pagecolor="#000000"
     bordercolor="#666666"
     borderopacity="1.0"
     inkscape:pageopacity="0"
     inkscape:pageshadow="2"
     inkscape:zoom="5.6"
     inkscape:cx="72.358759"
     inkscape:cy="105.83867"
     inkscape:document-units="px"
     inkscape:current-layer="layer2"
     showgrid="true"
     units="px"
     inkscape:snap-grids="true"
     objecttolerance="10000"
     guidetolerance="10000"
     inkscape:window-width="2321"
     inkscape:window-height="1879"
     inkscape:window-x="5333"
     inkscape:window-y="72"
     inkscape:window-maximized="0"
     inkscape:document-rotation="0"
     showguides="true"
     fit-margin-top="0"
     fit-margin-left="0"
     fit-margin-right="0"
     fit-margin-bottom="0">
    <inkscape:grid
       type="xygrid"
       id="grid4623"
       originx="-14.023433"
       originy="-5.4704671" />
    <sodipodi:guide
       position="-17.992183,39.649785"
       orientation="0,256"
       id="guide3351" />
    <sodipodi:guide
       position="48.15365,47.587285"
       orientation="256,0"
       id="guide3353" />
    <sodipodi:guide
       position="-16.669266,-0.037715593"
       orientation="0,-256"
       id="guide3355" />
    <sodipodi:guide
       position="-8.7317663,47.587285"
       orientation="-256,0"
       id="guide3357" />
    <sodipodi:guide
       position="-14.023433,44.941452"
       orientation="0,256"
       id="guide3359" />
    <sodipodi:guide
       position="53.709901,44.941452"
       orientation="256,0"
       id="guide3361" />
    <sodipodi:guide
       position="53.709901,-22.791883"
       orientation="0,-256"
       id="guide3363" />
    <sodipodi:guide
       position="-14.023433,-22.791883"
       orientation="-256,0"
       id="guide3365" />
    <sodipodi:guide
       position="-14.023433,44.941452"
       orientation="0,256"
       id="guide3367" />
    <sodipodi:guide
       position="53.709901,44.941452"
       orientation="256,0"
       id="guide3369" />
    <sodipodi:guide
       position="53.709901,-22.791883"
       orientation="0,-256"
       id="guide3371" />
    <sodipodi:guide
       position="-14.023433,-22.791883"
       orientation="-256,0"
       id="guide3373" />
    <sodipodi:guide
       position="-14.023433,44.941452"
       orientation="0,256"
       id="guide3375" />
    <sodipodi:guide
       position="53.709901,44.941452"
       orientation="256,0"
       id="guide3377" />
    <sodipodi:guide
       position="53.709901,-22.791883"
       orientation="0,-256"
       id="guide3379" />
    <sodipodi:guide
       position="-14.023433,-22.791883"
       orientation="-256,0"
       id="guide3381" />
  </sodipodi:namedview>
  <metadata
     id="metadata5">
    <rdf:RDF>
      <cc:Work
         rdf:about="">
        <dc:format>image/svg+xml</dc:format>
        <dc:type
           rdf:resource="http://purl.org/dc/dcmitype/StillImage" />
        <dc:title></dc:title>
      </cc:Work>
    </rdf:RDF>
  </metadata>
  <g
     inkscape:groupmode="layer"
     id="layer2"
     inkscape:label="Icon"
     transform="translate(-14.023433,-5.470467)">
    <path
       id="path879"
       style="color:#000000;font-style:normal;font-variant:normal;font-weight:normal;font-stretch:normal;font-size:medium;line-height:normal;font-family:sans-serif;font-variant-ligatures:normal;font-variant-position:normal;font-variant-caps:normal;font-variant-numeric:normal;font-variant-alternates:normal;font-variant-east-asian:normal;font-feature-settings:normal;font-variation-settings:normal;text-indent:0;text-align:start;text-decoration:none;text-decoration-line:none;text-decoration-style:solid;text-decoration-color:#000000;letter-spacing:normal;word-spacing:normal;text-transform:none;writing-mode:lr-tb;direction:ltr;text-orientation:mixed;dominant-baseline:auto;baseline-shift:baseline;text-anchor:start;white-space:normal;shape-padding:0;shape-margin:0;inline-size:0;clip-rule:nonzero;display:inline;overflow:visible;visibility:visible;opacity:1;isolation:auto;mix-blend-mode:normal;color-interpolation:sRGB;color-interpolation-filters:linearRGB;solid-color:#000000;solid-opacity:1;vector-effect:none;fill:#808080;fill-opacity:1;fill-rule:nonzero;stroke:none;stroke-width:4.18012;stroke-linecap:butt;stroke-linejoin:round;stroke-miterlimit:4;stroke-dasharray:none;stroke-dashoffset:6.00002;stroke-opacity:1;paint-order:markers fill stroke;color-rendering:auto;image-rendering:auto;shape-rendering:auto;text-rendering:auto;enable-background:accumulate;stop-color:#000000;stop-opacity:1"
       d="m 127.58789,20.675781 c -0.51013,0 -1.01741,0.01585 -1.52344,0.03906 -39.980696,0.805693 -72.258297,33.115241 -73.025388,73.105468 -0.02231,0.481713 -0.03711,0.965563 -0.03711,1.451172 0,0.48561 0.0148,0.967525 0.03711,1.449219 0.76646,39.99063 33.044287,72.29213 73.025388,73.09766 0.50603,0.0232 1.01331,0.0391 1.52344,0.0391 0.51002,0 1.01753,-0.0159 1.52344,-0.0391 39.98111,-0.80553 72.26088,-33.10703 73.02734,-73.09766 0.0223,-0.481694 0.0371,-0.963609 0.0371,-1.449219 0,-0.485609 -0.0148,-0.969459 -0.0371,-1.451172 -0.76709,-39.990227 -33.04664,-72.299775 -73.02734,-73.105468 -0.50591,-0.0232 -1.01342,-0.03906 -1.52344,-0.03906 z m 0,4.185547 c 1.60679,0 3.6242,1.340632 5.75195,4.71875 2.12775,3.378118 4.17705,8.530774 5.89063,14.962891 0.31531,1.183556 0.61514,2.423533 0.9082,3.691406 -4.08323,-0.438783 -8.27212,-0.679687 -12.55078,-0.679687 -4.27588,0 -8.46081,0.23951 -12.54101,0.677734 0.29303,-1.267144 0.59306,-2.506536 0.9082,-3.689453 1.71357,-6.432117 3.75506,-11.584772 5.88281,-14.962891 2.12775,-3.378119 4.14321,-4.718749 5.75,-4.71875 z m -8.45703,1.261719 c -0.28195,0.395667 -0.55956,0.800177 -0.82813,1.226562 -2.49375,3.959203 -4.61092,9.427576 -6.39257,16.115235 -0.45292,1.700083 -0.8829,3.480215 -1.28907,5.332031 -6.81588,1.006645 -13.27376,2.606656 -19.238278,4.720703 1.410599,-2.980937 2.958167,-5.788299 4.640626,-8.376953 6.299892,-9.693099 14.287072,-16.381354 23.107422,-19.017578 z m 16.91406,0 c 8.82107,2.635848 16.80905,9.323816 23.10938,19.017578 1.68175,2.587572 3.22854,5.393508 4.63867,8.373047 -5.96393,-2.11282 -12.42187,-3.710593 -19.23633,-4.716797 -0.40616,-1.85182 -0.83614,-3.631944 -1.28906,-5.332031 -1.78166,-6.687659 -3.89883,-12.156033 -6.39258,-16.115235 -0.26859,-0.426429 -0.5481,-0.830858 -0.83008,-1.226562 z m -30.17773,2.164062 c -5.01592,3.731023 -9.524369,8.694505 -13.349612,14.580079 -2.522398,3.880995 -4.750071,8.181026 -6.660156,12.80664 -3.806667,1.641461 -7.371624,3.50004 -10.642578,5.558594 -6.099278,3.838541 -11.202017,8.397543 -14.980469,13.478516 6.69018,-21.972336 23.824381,-39.364948 45.632815,-46.423829 z m 43.43945,0 c 21.8068,7.057224 38.94224,24.445129 45.63477,46.414063 -3.77616,-5.077369 -8.87501,-9.632464 -14.97071,-13.46875 -3.27305,-2.059875 -6.84226,-3.918317 -10.65234,-5.560547 -1.90987,-4.624711 -4.13624,-8.924353 -6.6582,-12.804687 -3.82557,-5.88607 -8.33709,-10.848949 -13.35352,-14.580079 z m -21.71875,23.445313 c 4.61131,0 9.11407,0.286778 13.47656,0.814453 1.3854,7.027306 2.4226,15.107568 3.05469,23.832031 -5.32112,-0.293449 -10.83747,-0.462891 -16.53125,-0.46289 -5.69378,-10e-7 -11.20818,0.169441 -16.5293,0.46289 0.63365,-8.724496 1.67405,-16.804702 3.06055,-23.832031 4.3607,-0.527222 8.85947,-0.814453 13.46875,-0.814453 z m -17.84766,1.425781 c -1.32316,7.034799 -2.30225,14.968665 -2.89843,23.478516 -8.437672,0.594606 -16.214097,1.551561 -23.113284,2.789062 1.091074,-7.361413 2.915327,-14.280432 5.349609,-20.548828 6.260719,-2.545333 13.212795,-4.505743 20.662105,-5.71875 z m 35.69727,0 c 7.44888,1.213075 14.40173,3.173491 20.66211,5.71875 2.43428,6.268396 4.25853,13.187415 5.34961,20.548828 -6.89971,-1.237595 -14.67683,-2.194465 -23.11524,-2.789062 -0.59617,-8.509762 -1.57333,-16.443775 -2.89648,-23.478516 z m -61.669922,8.101563 c -1.997986,5.921796 -3.496965,12.288865 -4.394531,18.988281 -1.207179,0.252474 -2.393225,0.512245 -3.53125,0.783203 -6.676403,1.58962 -12.125832,3.474392 -16.078125,5.699219 -0.511071,0.287692 -1.001453,0.584831 -1.470703,0.890625 2.517646,-8.711704 9.256475,-16.623949 19.142578,-22.845703 1.98659,-1.250248 4.110481,-2.417824 6.332031,-3.515625 z m 87.642582,0 c 2.22126,1.097691 4.34372,2.265524 6.33007,3.515625 9.88611,6.221754 16.62494,14.133999 19.14258,22.845703 -0.46925,-0.305794 -0.95768,-0.602933 -1.46875,-0.890625 -3.95229,-2.224827 -9.40172,-4.109599 -16.07812,-5.699219 -1.13803,-0.270958 -2.32407,-0.530729 -3.53125,-0.783203 -0.89757,-6.699417 -2.39655,-13.066486 -4.39453,-18.988281 z M 127.58789,80.09375 c 5.80281,0 11.41596,0.18237 16.81836,0.492188 0.26218,4.740618 0.4043,9.651231 0.4043,14.685546 0,5.032186 -0.14038,9.939686 -0.40235,14.677736 -5.40299,0.309 -11.0168,0.49219 -16.82031,0.49219 -5.80328,0 -11.41557,-0.18322 -16.81836,-0.49219 -0.26267,-4.73805 -0.40234,-9.64555 -0.40234,-14.677736 0,-5.034313 0.1414,-9.944929 0.40429,-14.685546 5.4022,-0.309794 11.01383,-0.492188 16.81641,-0.492188 z m -21.02539,0.75 c -0.24841,4.666678 -0.38086,9.48825 -0.38086,14.427734 0,4.938106 0.13259,9.755126 0.38086,14.419926 -8.625563,-0.62703 -16.518836,-1.63375 -23.390625,-2.92188 -0.396547,-3.74239 -0.613281,-7.580022 -0.613281,-11.498046 0,-3.917894 0.216759,-7.757251 0.613281,-11.5 6.871808,-1.289053 14.765029,-2.299068 23.390625,-2.927734 z m 42.05078,0 c 8.62564,0.628665 16.52074,1.638675 23.39258,2.927734 0.39652,3.742749 0.61133,7.582106 0.61133,11.5 0,3.918024 -0.21478,7.755656 -0.61133,11.498046 -6.87182,1.28813 -14.76697,2.29485 -23.39258,2.92188 0.24828,-4.6648 0.38281,-9.48182 0.38281,-14.419926 0,-4.939486 -0.1344,-9.761055 -0.38281,-14.427734 z m -69.732421,3.785156 c -0.325311,3.477591 -0.5,7.028673 -0.5,10.642578 0,3.613907 0.174689,7.163036 0.5,10.640626 -0.702009,-0.15422 -1.397842,-0.30817 -2.072265,-0.46875 -6.443377,-1.53414 -11.607164,-3.3738 -14.992188,-5.2793 -3.385028,-1.905499 -4.636718,-3.695259 -4.636718,-4.892576 0,-1.197316 1.25169,-2.996842 4.636718,-4.902343 3.385024,-1.905498 8.548811,-3.737348 14.992188,-5.271485 0.674423,-0.160577 1.370256,-0.314487 2.072265,-0.46875 z m 97.414061,0 c 0.70212,0.154284 1.3997,0.30815 2.07422,0.46875 6.44338,1.534137 11.61498,3.365987 15,5.271485 3.38503,1.905501 4.62695,3.705027 4.62695,4.902343 0,1.197317 -1.24192,2.987077 -4.62695,4.892576 -3.38502,1.9055 -8.55662,3.74516 -15,5.2793 -0.67452,0.1606 -1.3721,0.3145 -2.07422,0.46875 0.32531,-3.47759 0.50196,-7.026719 0.50196,-10.640626 0,-3.613906 -0.17665,-7.164987 -0.50196,-10.642578 z M 58.292969,102.92188 c 0.46925,0.30579 0.959632,0.60097 1.470703,0.88867 3.952293,2.22482 9.401722,4.1096 16.078125,5.69922 1.138025,0.27095 2.324071,0.53082 3.53125,0.7832 0.897506,6.69984 2.396476,13.06613 4.394531,18.98828 -2.22155,-1.0975 -4.345441,-2.26538 -6.332031,-3.51563 -9.885421,-6.22132 -16.624521,-14.13275 -19.142578,-22.84374 z m 138.589841,0 c -2.51805,8.71099 -9.25716,16.62242 -19.14258,22.84374 -1.98635,1.2501 -4.10881,2.41824 -6.33007,3.51563 1.99805,-5.92215 3.49702,-12.28844 4.39453,-18.98828 1.20718,-0.25238 2.39322,-0.51225 3.53125,-0.7832 6.6764,-1.58962 12.12583,-3.4744 16.07812,-5.69922 0.51107,-0.2877 0.9995,-0.58288 1.46875,-0.88867 z m -113.154294,8.19335 c 6.899187,1.23649 14.675612,2.19016 23.113284,2.78321 0.5962,8.51062 1.57489,16.4453 2.89843,23.48047 -7.44853,-1.21158 -14.39994,-3.17112 -20.660152,-5.71485 -2.43527,-6.26831 -4.260137,-13.18676 -5.351562,-20.54883 z m 87.720704,0 c -1.09143,7.36207 -2.91629,14.28052 -5.35156,20.54883 -6.26041,2.54388 -13.21329,4.50322 -20.66211,5.71485 1.32356,-7.0352 2.30222,-14.96979 2.89843,-23.48047 8.43841,-0.59305 16.21553,-1.54663 23.11524,-2.78321 z m -60.39063,3.04102 c 5.32112,0.2926 10.83552,0.46289 16.5293,0.46289 5.69448,0 11.21148,-0.17022 16.5332,-0.46289 -0.63205,8.72472 -1.67099,16.80456 -3.05664,23.83203 -4.36249,0.52705 -8.86525,0.8125 -13.47656,0.8125 -4.60928,0 -9.10805,-0.2859 -13.46875,-0.8125 -1.38674,-7.02746 -2.42694,-15.10733 -3.06055,-23.83203 z m -50.826168,1.66797 c 3.778611,5.08021 8.882266,9.63747 14.982422,13.47656 3.270271,2.05813 6.834856,3.91673 10.640625,5.5586 1.91075,4.62842 4.138371,8.93139 6.662109,12.81445 3.827213,5.8886 8.338402,10.85194 13.357422,14.58203 C 84.060979,155.19794 66.922114,137.8019 60.232422,115.82422 Z m 134.710938,0.01 c -6.6921,21.97449 -23.83186,39.3677 -45.64453,46.42383 5.01992,-3.73028 9.53355,-8.69451 13.36133,-14.58398 2.52313,-3.88213 4.75166,-8.18339 6.66211,-12.81055 3.80884,-1.64254 7.37632,-3.50322 10.64843,-5.5625 6.09658,-3.83684 11.19634,-8.39019 14.97266,-13.4668 z m -103.558594,21.1875 c 5.964417,2.11505 12.422594,3.71313 19.238284,4.72071 0.40578,1.84951 0.83466,3.62983 1.28711,5.32812 1.78165,6.68766 3.89882,12.15408 6.39257,16.11328 0.27034,0.4292 0.55009,0.83632 0.83399,1.23438 -8.82266,-2.63706 -16.81201,-9.32821 -23.113282,-19.02344 -1.68172,-2.58752 -3.228566,-5.39407 -4.638672,-8.37305 z m 72.406254,0.002 c -1.40984,2.97818 -2.95541,5.78419 -4.63672,8.37109 -6.30171,9.6959 -14.29186,16.38676 -23.11524,19.02344 0.28393,-0.3981 0.56558,-0.80514 0.83594,-1.23438 2.49375,-3.9592 4.61092,-9.42562 6.39258,-16.11328 0.45244,-1.6983 0.88132,-3.47861 1.28711,-5.32812 6.81449,-1.00717 13.27233,-2.60483 19.23633,-4.71875 z m -48.74219,5.2832 c 4.07964,0.43861 8.26381,0.67969 12.53906,0.67969 4.27796,0 8.46623,-0.24053 12.54883,-0.67969 -0.29251,1.26498 -0.59159,2.50443 -0.90625,3.68555 -1.71358,6.43212 -3.76288,11.58477 -5.89063,14.96289 -2.12775,3.37811 -4.14516,4.72461 -5.75195,4.72461 -1.60679,-1e-5 -3.62225,-1.3465 -5.75,-4.72461 -2.12775,-3.37812 -4.16924,-8.53077 -5.88281,-14.96289 -0.31465,-1.18106 -0.61365,-2.42064 -0.90625,-3.68555 z"
       transform="scale(0.26458333)" />
  </g>
</svg>
